<?xml version="1.0" encoding="iso-8859-1"?>
<!-- Generator: Adobe Illustrator 18.1.1, SVG Export Plug-In . SVG Version: 6.00 Build 0)  -->
<svg version="1.1" id="Capa_1" xmlns="http://www.w3.org/2000/svg" xmlns:xlink="http://www.w3.org/1999/xlink" x="0px" y="0px"
	 viewBox="0 0 17.005 17.005" style="enable-background:new 0 0 17.005 17.005;" xml:space="preserve">
<g>
	<path style="fill:#030104;" d="M13.185,5.442c-1.416,0-3.563,2.577-4.255,3.458L8.862,8.822c0.794-0.932,2.765-3.412,2.765-5.068
		C11.627,1.681,10.242,0,8.535,0S5.442,1.681,5.442,3.754c0,1.657,1.971,4.137,2.764,5.068L8.113,8.927
		C7.47,8.103,5.265,5.418,3.819,5.418c-1.708,0-3.091,1.681-3.091,3.753c0,2.075,1.383,3.755,3.091,3.755
		c1.405,0,3.53-2.539,4.239-3.439c-0.171,1.724-0.748,6.912-1.536,7.518h4.025c-1.016-0.723-1.432-5.646-1.551-7.43
		c0.756,0.951,2.815,3.375,4.189,3.375c1.707,0,3.092-1.68,3.092-3.754C16.276,7.123,14.892,5.442,13.185,5.442z"/>
</g>
<g>
</g>
<g>
</g>
<g>
</g>
<g>
</g>
<g>
</g>
<g>
</g>
<g>
</g>
<g>
</g>
<g>
</g>
<g>
</g>
<g>
</g>
<g>
</g>
<g>
</g>
<g>
</g>
<g>
</g>
</svg>
